<svg width="402" height="874" viewBox="0 0 402 874" fill="none" xmlns="http://www.w3.org/2000/svg">
<g clip-path="url(#clip0_37_443)">
<rect width="402" height="874" fill="white"/>
<rect x="222" y="307" width="139" height="150" fill="#EEEEEE"/>
<rect x="222" y="307" width="139" height="150" stroke="#AAAAAA" stroke-width="2"/>
<path d="M227 312L356 452" stroke="#AAAAAA" stroke-width="2"/>
<path d="M356 312L227 452" stroke="#AAAAAA" stroke-width="2"/>
<rect x="29" y="32" width="171" height="425" fill="#EEEEEE"/>
<rect x="29" y="32" width="171" height="425" stroke="#AAAAAA" stroke-width="2"/>
<path d="M34 37L195 452" stroke="#AAAAAA" stroke-width="2"/>
<path d="M195 37L34 452" stroke="#AAAAAA" stroke-width="2"/>
<g opacity="0.4">
<rect x="222" y="38" width="162" height="224" fill="#EEEEEE"/>
<rect x="222" y="38" width="162" height="224" stroke="#AAAAAA" stroke-width="2"/>
<path d="M227 43L379 257" stroke="#AAAAAA" stroke-width="2"/>
<path d="M379 43L227 257" stroke="#AAAAAA" stroke-width="2"/>
</g>
<path d="M117.333 570.131C117.242 569.324 116.867 568.699 116.208 568.256C115.549 567.807 114.72 567.582 113.72 567.582C113.004 567.582 112.384 567.696 111.862 567.923C111.339 568.145 110.933 568.452 110.643 568.844C110.359 569.23 110.217 569.67 110.217 570.165C110.217 570.58 110.313 570.937 110.506 571.239C110.705 571.54 110.964 571.793 111.282 571.997C111.606 572.196 111.953 572.364 112.322 572.5C112.691 572.631 113.046 572.739 113.387 572.824L115.092 573.267C115.649 573.403 116.22 573.588 116.805 573.821C117.39 574.054 117.933 574.361 118.433 574.741C118.933 575.122 119.336 575.594 119.643 576.156C119.955 576.719 120.112 577.392 120.112 578.176C120.112 579.165 119.856 580.043 119.345 580.81C118.839 581.577 118.103 582.182 117.137 582.625C116.177 583.068 115.015 583.29 113.651 583.29C112.345 583.29 111.214 583.082 110.259 582.668C109.305 582.253 108.558 581.665 108.018 580.903C107.478 580.136 107.18 579.227 107.123 578.176H109.765C109.816 578.807 110.021 579.332 110.379 579.753C110.742 580.168 111.205 580.477 111.768 580.682C112.336 580.881 112.958 580.98 113.634 580.98C114.379 580.98 115.041 580.864 115.62 580.631C116.205 580.392 116.666 580.062 117.001 579.642C117.336 579.216 117.504 578.719 117.504 578.151C117.504 577.634 117.356 577.21 117.06 576.881C116.771 576.551 116.376 576.278 115.876 576.062C115.381 575.847 114.822 575.656 114.197 575.491L112.134 574.929C110.737 574.548 109.629 573.989 108.81 573.25C107.998 572.511 107.592 571.534 107.592 570.318C107.592 569.312 107.864 568.435 108.41 567.685C108.955 566.935 109.694 566.352 110.626 565.938C111.558 565.517 112.609 565.307 113.779 565.307C114.961 565.307 116.004 565.514 116.907 565.929C117.816 566.344 118.532 566.915 119.055 567.642C119.578 568.364 119.85 569.193 119.873 570.131H117.333ZM128.432 583.264C127.142 583.264 126.032 582.989 125.1 582.438C124.174 581.881 123.458 581.099 122.952 580.094C122.452 579.082 122.202 577.898 122.202 576.54C122.202 575.199 122.452 574.017 122.952 572.994C123.458 571.972 124.162 571.173 125.066 570.599C125.975 570.026 127.037 569.739 128.253 569.739C128.992 569.739 129.708 569.861 130.401 570.105C131.094 570.349 131.716 570.733 132.267 571.256C132.818 571.778 133.253 572.457 133.571 573.293C133.889 574.122 134.049 575.131 134.049 576.318V577.222H123.642V575.312H131.551C131.551 574.642 131.415 574.048 131.142 573.531C130.87 573.009 130.486 572.597 129.992 572.295C129.503 571.994 128.929 571.844 128.27 571.844C127.554 571.844 126.929 572.02 126.395 572.372C125.867 572.719 125.458 573.173 125.168 573.736C124.884 574.293 124.742 574.898 124.742 575.551V577.043C124.742 577.918 124.895 578.662 125.202 579.276C125.514 579.889 125.949 580.358 126.506 580.682C127.063 581 127.713 581.159 128.458 581.159C128.941 581.159 129.381 581.091 129.779 580.955C130.176 580.812 130.52 580.602 130.81 580.324C131.1 580.045 131.321 579.702 131.475 579.293L133.887 579.727C133.693 580.437 133.347 581.06 132.847 581.594C132.353 582.122 131.73 582.534 130.98 582.83C130.236 583.119 129.387 583.264 128.432 583.264ZM141.513 583.256C140.456 583.256 139.513 582.986 138.683 582.446C137.859 581.901 137.211 581.125 136.74 580.119C136.274 579.108 136.041 577.895 136.041 576.48C136.041 575.065 136.277 573.855 136.748 572.849C137.226 571.844 137.879 571.074 138.709 570.54C139.538 570.006 140.478 569.739 141.53 569.739C142.342 569.739 142.996 569.875 143.49 570.148C143.99 570.415 144.376 570.727 144.649 571.085C144.927 571.443 145.143 571.759 145.297 572.031H145.45V565.545H147.998V583H145.51V580.963H145.297C145.143 581.241 144.922 581.56 144.632 581.918C144.348 582.276 143.956 582.588 143.456 582.855C142.956 583.122 142.308 583.256 141.513 583.256ZM142.075 581.082C142.808 581.082 143.427 580.889 143.933 580.503C144.444 580.111 144.831 579.568 145.092 578.875C145.359 578.182 145.493 577.375 145.493 576.455C145.493 575.545 145.362 574.75 145.101 574.068C144.839 573.386 144.456 572.855 143.95 572.474C143.444 572.094 142.819 571.903 142.075 571.903C141.308 571.903 140.669 572.102 140.157 572.5C139.646 572.898 139.26 573.44 138.998 574.128C138.743 574.815 138.615 575.591 138.615 576.455C138.615 577.33 138.746 578.116 139.007 578.815C139.268 579.514 139.655 580.068 140.166 580.477C140.683 580.881 141.319 581.082 142.075 581.082ZM162.36 583.256C161.303 583.256 160.36 582.986 159.53 582.446C158.706 581.901 158.058 581.125 157.587 580.119C157.121 579.108 156.888 577.895 156.888 576.48C156.888 575.065 157.124 573.855 157.595 572.849C158.073 571.844 158.726 571.074 159.556 570.54C160.385 570.006 161.325 569.739 162.377 569.739C163.189 569.739 163.843 569.875 164.337 570.148C164.837 570.415 165.223 570.727 165.496 571.085C165.774 571.443 165.99 571.759 166.144 572.031H166.297V565.545H168.845V583H166.357V580.963H166.144C165.99 581.241 165.769 581.56 165.479 581.918C165.195 582.276 164.803 582.588 164.303 582.855C163.803 583.122 163.155 583.256 162.36 583.256ZM162.922 581.082C163.655 581.082 164.274 580.889 164.78 580.503C165.291 580.111 165.678 579.568 165.939 578.875C166.206 578.182 166.34 577.375 166.34 576.455C166.34 575.545 166.209 574.75 165.948 574.068C165.686 573.386 165.303 572.855 164.797 572.474C164.291 572.094 163.666 571.903 162.922 571.903C162.155 571.903 161.516 572.102 161.004 572.5C160.493 572.898 160.107 573.44 159.845 574.128C159.59 574.815 159.462 575.591 159.462 576.455C159.462 577.33 159.593 578.116 159.854 578.815C160.115 579.514 160.502 580.068 161.013 580.477C161.53 580.881 162.166 581.082 162.922 581.082ZM177.733 583.264C176.505 583.264 175.434 582.983 174.52 582.42C173.605 581.858 172.895 581.071 172.389 580.06C171.883 579.048 171.63 577.866 171.63 576.514C171.63 575.156 171.883 573.969 172.389 572.952C172.895 571.935 173.605 571.145 174.52 570.582C175.434 570.02 176.505 569.739 177.733 569.739C178.96 569.739 180.031 570.02 180.946 570.582C181.86 571.145 182.571 571.935 183.076 572.952C183.582 573.969 183.835 575.156 183.835 576.514C183.835 577.866 183.582 579.048 183.076 580.06C182.571 581.071 181.86 581.858 180.946 582.42C180.031 582.983 178.96 583.264 177.733 583.264ZM177.741 581.125C178.537 581.125 179.196 580.915 179.718 580.494C180.241 580.074 180.628 579.514 180.878 578.815C181.133 578.116 181.261 577.347 181.261 576.506C181.261 575.67 181.133 574.903 180.878 574.205C180.628 573.5 180.241 572.935 179.718 572.509C179.196 572.082 178.537 571.869 177.741 571.869C176.94 571.869 176.275 572.082 175.747 572.509C175.224 572.935 174.835 573.5 174.579 574.205C174.329 574.903 174.204 575.67 174.204 576.506C174.204 577.347 174.329 578.116 174.579 578.815C174.835 579.514 175.224 580.074 175.747 580.494C176.275 580.915 176.94 581.125 177.741 581.125ZM198.145 583.264C196.855 583.264 195.744 582.989 194.813 582.438C193.886 581.881 193.171 581.099 192.665 580.094C192.165 579.082 191.915 577.898 191.915 576.54C191.915 575.199 192.165 574.017 192.665 572.994C193.171 571.972 193.875 571.173 194.779 570.599C195.688 570.026 196.75 569.739 197.966 569.739C198.705 569.739 199.421 569.861 200.114 570.105C200.807 570.349 201.429 570.733 201.98 571.256C202.531 571.778 202.966 572.457 203.284 573.293C203.602 574.122 203.761 575.131 203.761 576.318V577.222H193.355V575.312H201.264C201.264 574.642 201.128 574.048 200.855 573.531C200.583 573.009 200.199 572.597 199.705 572.295C199.216 571.994 198.642 571.844 197.983 571.844C197.267 571.844 196.642 572.02 196.108 572.372C195.58 572.719 195.171 573.173 194.881 573.736C194.597 574.293 194.455 574.898 194.455 575.551V577.043C194.455 577.918 194.608 578.662 194.915 579.276C195.227 579.889 195.662 580.358 196.219 580.682C196.776 581 197.426 581.159 198.171 581.159C198.654 581.159 199.094 581.091 199.492 580.955C199.889 580.812 200.233 580.602 200.523 580.324C200.813 580.045 201.034 579.702 201.188 579.293L203.6 579.727C203.406 580.437 203.06 581.06 202.56 581.594C202.065 582.122 201.443 582.534 200.693 582.83C199.949 583.119 199.1 583.264 198.145 583.264ZM206.325 583V569.909H208.873V583H206.325ZM207.612 567.889C207.169 567.889 206.788 567.741 206.47 567.446C206.157 567.145 206.001 566.787 206.001 566.372C206.001 565.952 206.157 565.594 206.47 565.298C206.788 564.997 207.169 564.847 207.612 564.847C208.055 564.847 208.433 564.997 208.745 565.298C209.064 565.594 209.223 565.952 209.223 566.372C209.223 566.787 209.064 567.145 208.745 567.446C208.433 567.741 208.055 567.889 207.612 567.889ZM220.33 577.571V569.909H222.887V583H220.381V580.733H220.245C219.944 581.432 219.461 582.014 218.796 582.48C218.137 582.94 217.316 583.17 216.333 583.17C215.492 583.17 214.748 582.986 214.1 582.616C213.458 582.241 212.952 581.688 212.583 580.955C212.219 580.222 212.037 579.315 212.037 578.236V569.909H214.586V577.929C214.586 578.821 214.833 579.531 215.327 580.06C215.822 580.588 216.464 580.852 217.253 580.852C217.731 580.852 218.205 580.733 218.677 580.494C219.154 580.256 219.549 579.895 219.861 579.412C220.179 578.929 220.336 578.315 220.33 577.571ZM235.857 573.105L233.547 573.514C233.45 573.219 233.297 572.937 233.087 572.67C232.882 572.403 232.604 572.185 232.251 572.014C231.899 571.844 231.459 571.759 230.93 571.759C230.209 571.759 229.607 571.92 229.124 572.244C228.641 572.562 228.399 572.974 228.399 573.48C228.399 573.918 228.561 574.27 228.885 574.537C229.209 574.804 229.732 575.023 230.453 575.193L232.533 575.67C233.737 575.949 234.635 576.378 235.226 576.957C235.817 577.537 236.112 578.29 236.112 579.216C236.112 580 235.885 580.699 235.43 581.312C234.982 581.92 234.354 582.398 233.547 582.744C232.746 583.091 231.817 583.264 230.76 583.264C229.294 583.264 228.098 582.952 227.172 582.327C226.246 581.696 225.678 580.801 225.467 579.642L227.93 579.267C228.084 579.909 228.399 580.395 228.876 580.724C229.354 581.048 229.976 581.21 230.743 581.21C231.578 581.21 232.246 581.037 232.746 580.69C233.246 580.338 233.496 579.909 233.496 579.403C233.496 578.994 233.342 578.651 233.036 578.372C232.734 578.094 232.271 577.884 231.646 577.741L229.43 577.256C228.209 576.977 227.305 576.534 226.72 575.926C226.141 575.318 225.851 574.548 225.851 573.616C225.851 572.844 226.067 572.168 226.499 571.588C226.93 571.009 227.527 570.557 228.288 570.233C229.05 569.903 229.922 569.739 230.905 569.739C232.32 569.739 233.433 570.045 234.246 570.659C235.058 571.267 235.595 572.082 235.857 573.105ZM238.65 583V569.909H241.096V572.04H241.258C241.531 571.318 241.977 570.756 242.596 570.352C243.215 569.943 243.957 569.739 244.821 569.739C245.696 569.739 246.428 569.943 247.019 570.352C247.616 570.761 248.056 571.324 248.34 572.04H248.477C248.789 571.341 249.286 570.784 249.968 570.369C250.65 569.949 251.463 569.739 252.406 569.739C253.593 569.739 254.562 570.111 255.312 570.855C256.068 571.599 256.446 572.722 256.446 574.222V583H253.897V574.46C253.897 573.574 253.656 572.932 253.173 572.534C252.69 572.136 252.113 571.938 251.443 571.938C250.613 571.938 249.968 572.193 249.508 572.705C249.048 573.21 248.818 573.861 248.818 574.656V583H246.278V574.298C246.278 573.588 246.056 573.017 245.613 572.585C245.17 572.153 244.593 571.938 243.883 571.938C243.4 571.938 242.954 572.065 242.545 572.321C242.142 572.571 241.815 572.92 241.565 573.369C241.321 573.818 241.198 574.338 241.198 574.929V583H238.65ZM265.111 583.264C263.884 583.264 262.813 582.983 261.898 582.42C260.983 581.858 260.273 581.071 259.767 580.06C259.262 579.048 259.009 577.866 259.009 576.514C259.009 575.156 259.262 573.969 259.767 572.952C260.273 571.935 260.983 571.145 261.898 570.582C262.813 570.02 263.884 569.739 265.111 569.739C266.338 569.739 267.41 570.02 268.324 570.582C269.239 571.145 269.949 571.935 270.455 572.952C270.961 573.969 271.213 575.156 271.213 576.514C271.213 577.866 270.961 579.048 270.455 580.06C269.949 581.071 269.239 581.858 268.324 582.42C267.41 582.983 266.338 583.264 265.111 583.264ZM265.12 581.125C265.915 581.125 266.574 580.915 267.097 580.494C267.62 580.074 268.006 579.514 268.256 578.815C268.512 578.116 268.64 577.347 268.64 576.506C268.64 575.67 268.512 574.903 268.256 574.205C268.006 573.5 267.62 572.935 267.097 572.509C266.574 572.082 265.915 571.869 265.12 571.869C264.319 571.869 263.654 572.082 263.125 572.509C262.603 572.935 262.213 573.5 261.958 574.205C261.708 574.903 261.583 575.67 261.583 576.506C261.583 577.347 261.708 578.116 261.958 578.815C262.213 579.514 262.603 580.074 263.125 580.494C263.654 580.915 264.319 581.125 265.12 581.125ZM278.695 583.256C277.638 583.256 276.695 582.986 275.865 582.446C275.041 581.901 274.393 581.125 273.922 580.119C273.456 579.108 273.223 577.895 273.223 576.48C273.223 575.065 273.459 573.855 273.93 572.849C274.408 571.844 275.061 571.074 275.891 570.54C276.72 570.006 277.66 569.739 278.712 569.739C279.524 569.739 280.177 569.875 280.672 570.148C281.172 570.415 281.558 570.727 281.831 571.085C282.109 571.443 282.325 571.759 282.479 572.031H282.632V565.545H285.18V583H282.692V580.963H282.479C282.325 581.241 282.104 581.56 281.814 581.918C281.53 582.276 281.138 582.588 280.638 582.855C280.138 583.122 279.49 583.256 278.695 583.256ZM279.257 581.082C279.99 581.082 280.609 580.889 281.115 580.503C281.626 580.111 282.013 579.568 282.274 578.875C282.541 578.182 282.675 577.375 282.675 576.455C282.675 575.545 282.544 574.75 282.283 574.068C282.021 573.386 281.638 572.855 281.132 572.474C280.626 572.094 280.001 571.903 279.257 571.903C278.49 571.903 277.851 572.102 277.339 572.5C276.828 572.898 276.442 573.44 276.18 574.128C275.925 574.815 275.797 575.591 275.797 576.455C275.797 577.33 275.927 578.116 276.189 578.815C276.45 579.514 276.837 580.068 277.348 580.477C277.865 580.881 278.501 581.082 279.257 581.082ZM13.7736 605.909V607.955H6.62304V605.909H13.7736ZM8.54065 602.773H11.0889V615.156C11.0889 615.651 11.1628 616.023 11.3105 616.273C11.4583 616.517 11.6486 616.685 11.8816 616.776C12.1202 616.861 12.3787 616.903 12.6571 616.903C12.8617 616.903 13.0407 616.889 13.1941 616.861C13.3475 616.832 13.4668 616.81 13.552 616.793L14.0122 618.898C13.8645 618.955 13.6543 619.011 13.3816 619.068C13.1088 619.131 12.7679 619.165 12.3588 619.17C11.6884 619.182 11.0634 619.062 10.4838 618.812C9.90429 618.562 9.43554 618.176 9.07759 617.653C8.71963 617.131 8.54065 616.474 8.54065 615.685V602.773ZM21.8299 619.264C20.5401 619.264 19.4294 618.989 18.4975 618.438C17.5714 617.881 16.8555 617.099 16.3498 616.094C15.8498 615.082 15.5998 613.898 15.5998 612.54C15.5998 611.199 15.8498 610.017 16.3498 608.994C16.8555 607.972 17.56 607.173 18.4634 606.599C19.3725 606.026 20.435 605.739 21.6509 605.739C22.3896 605.739 23.1055 605.861 23.7987 606.105C24.4919 606.349 25.114 606.733 25.6651 607.256C26.2163 607.778 26.6509 608.457 26.9691 609.293C27.2873 610.122 27.4464 611.131 27.4464 612.318V613.222H17.0401V611.312H24.9492C24.9492 610.642 24.8129 610.048 24.5401 609.531C24.2674 609.009 23.8839 608.597 23.3896 608.295C22.9009 607.994 22.3271 607.844 21.668 607.844C20.9521 607.844 20.3271 608.02 19.793 608.372C19.2646 608.719 18.8555 609.173 18.5657 609.736C18.2816 610.293 18.1396 610.898 18.1396 611.551V613.043C18.1396 613.918 18.293 614.662 18.5998 615.276C18.9123 615.889 19.347 616.358 19.9038 616.682C20.4606 617 21.1112 617.159 21.8555 617.159C22.3384 617.159 22.7788 617.091 23.1765 616.955C23.5742 616.812 23.918 616.602 24.2078 616.324C24.4975 616.045 24.7191 615.702 24.8725 615.293L27.2845 615.727C27.0913 616.437 26.7447 617.06 26.2447 617.594C25.7504 618.122 25.1282 618.534 24.3782 618.83C23.6339 619.119 22.7845 619.264 21.8299 619.264ZM30.0098 619V605.909H32.4558V608.04H32.6178C32.8905 607.318 33.3365 606.756 33.9558 606.352C34.5752 605.943 35.3166 605.739 36.1803 605.739C37.0553 605.739 37.7882 605.943 38.3791 606.352C38.9757 606.761 39.4161 607.324 39.7002 608.04H39.8365C40.149 607.341 40.6462 606.784 41.328 606.369C42.0098 605.949 42.8223 605.739 43.7655 605.739C44.953 605.739 45.9217 606.111 46.6717 606.855C47.4274 607.599 47.8053 608.722 47.8053 610.222V619H45.257V610.46C45.257 609.574 45.0155 608.932 44.5325 608.534C44.0496 608.136 43.4729 607.938 42.8024 607.938C41.9729 607.938 41.328 608.193 40.8678 608.705C40.4075 609.21 40.1774 609.861 40.1774 610.656V619H37.6377V610.298C37.6377 609.588 37.4161 609.017 36.9729 608.585C36.5297 608.153 35.953 607.938 35.2428 607.938C34.7598 607.938 34.3138 608.065 33.9047 608.321C33.5013 608.571 33.1746 608.92 32.9246 609.369C32.6803 609.818 32.5581 610.338 32.5581 610.929V619H30.0098ZM50.9568 623.909V605.909H53.4454V608.031H53.6585C53.8062 607.759 54.0193 607.443 54.2977 607.085C54.5761 606.727 54.9624 606.415 55.4568 606.148C55.9511 605.875 56.6045 605.739 57.417 605.739C58.4738 605.739 59.417 606.006 60.2465 606.54C61.0761 607.074 61.7266 607.844 62.1982 608.849C62.6755 609.855 62.9141 611.065 62.9141 612.48C62.9141 613.895 62.6783 615.108 62.2068 616.119C61.7352 617.125 61.0874 617.901 60.2636 618.446C59.4397 618.986 58.4994 619.256 57.4425 619.256C56.6471 619.256 55.9965 619.122 55.4908 618.855C54.9908 618.588 54.5988 618.276 54.3147 617.918C54.0306 617.56 53.8119 617.241 53.6585 616.963H53.505V623.909H50.9568ZM53.4539 612.455C53.4539 613.375 53.5874 614.182 53.8545 614.875C54.1215 615.568 54.5079 616.111 55.0136 616.503C55.5193 616.889 56.1386 617.082 56.8715 617.082C57.6329 617.082 58.2693 616.881 58.7806 616.477C59.292 616.068 59.6783 615.514 59.9397 614.815C60.2068 614.116 60.3403 613.33 60.3403 612.455C60.3403 611.591 60.2096 610.815 59.9482 610.128C59.6925 609.44 59.3062 608.898 58.7891 608.5C58.2778 608.102 57.6386 607.903 56.8715 607.903C56.1329 607.903 55.5079 608.094 54.9965 608.474C54.4908 608.855 54.1073 609.386 53.846 610.068C53.5846 610.75 53.4539 611.545 53.4539 612.455ZM71.0195 619.264C69.7922 619.264 68.7212 618.983 67.8064 618.42C66.8916 617.858 66.1814 617.071 65.6757 616.06C65.17 615.048 64.9172 613.866 64.9172 612.514C64.9172 611.156 65.17 609.969 65.6757 608.952C66.1814 607.935 66.8916 607.145 67.8064 606.582C68.7212 606.02 69.7922 605.739 71.0195 605.739C72.2467 605.739 73.3178 606.02 74.2325 606.582C75.1473 607.145 75.8575 607.935 76.3632 608.952C76.8689 609.969 77.1217 611.156 77.1217 612.514C77.1217 613.866 76.8689 615.048 76.3632 616.06C75.8575 617.071 75.1473 617.858 74.2325 618.42C73.3178 618.983 72.2467 619.264 71.0195 619.264ZM71.028 617.125C71.8234 617.125 72.4825 616.915 73.0053 616.494C73.528 616.074 73.9143 615.514 74.1643 614.815C74.42 614.116 74.5479 613.347 74.5479 612.506C74.5479 611.67 74.42 610.903 74.1643 610.205C73.9143 609.5 73.528 608.935 73.0053 608.509C72.4825 608.082 71.8234 607.869 71.028 607.869C70.2268 607.869 69.5621 608.082 69.0337 608.509C68.5109 608.935 68.1217 609.5 67.866 610.205C67.616 610.903 67.491 611.67 67.491 612.506C67.491 613.347 67.616 614.116 67.866 614.815C68.1217 615.514 68.5109 616.074 69.0337 616.494C69.5621 616.915 70.2268 617.125 71.028 617.125ZM79.7022 619V605.909H82.1653V607.989H82.3016C82.5403 607.284 82.9607 606.73 83.563 606.327C84.1709 605.918 84.8584 605.713 85.6255 605.713C85.7846 605.713 85.9721 605.719 86.188 605.73C86.4096 605.741 86.5829 605.756 86.7079 605.773V608.21C86.6056 608.182 86.4238 608.151 86.1624 608.116C85.9011 608.077 85.6397 608.057 85.3783 608.057C84.7761 608.057 84.2391 608.185 83.7675 608.44C83.3016 608.69 82.9323 609.04 82.6596 609.489C82.3868 609.932 82.2505 610.437 82.2505 611.006V619H79.7022ZM94.7367 619V605.909H97.285V619H94.7367ZM96.0236 603.889C95.5804 603.889 95.1998 603.741 94.8816 603.446C94.5691 603.145 94.4128 602.787 94.4128 602.372C94.4128 601.952 94.5691 601.594 94.8816 601.298C95.1998 600.997 95.5804 600.847 96.0236 600.847C96.4668 600.847 96.8446 600.997 97.1571 601.298C97.4753 601.594 97.6344 601.952 97.6344 602.372C97.6344 602.787 97.4753 603.145 97.1571 603.446C96.8446 603.741 96.4668 603.889 96.0236 603.889ZM102.998 611.227V619H100.449V605.909H102.895V608.04H103.057C103.358 607.347 103.83 606.79 104.472 606.369C105.12 605.949 105.935 605.739 106.918 605.739C107.81 605.739 108.591 605.926 109.262 606.301C109.932 606.67 110.452 607.222 110.821 607.955C111.191 608.687 111.375 609.594 111.375 610.673V619H108.827V610.98C108.827 610.031 108.58 609.29 108.086 608.756C107.591 608.216 106.912 607.946 106.049 607.946C105.458 607.946 104.932 608.074 104.472 608.33C104.017 608.585 103.657 608.96 103.39 609.455C103.128 609.943 102.998 610.534 102.998 611.227ZM120.043 619.264C118.776 619.264 117.685 618.977 116.77 618.403C115.861 617.824 115.163 617.026 114.674 616.009C114.185 614.991 113.941 613.827 113.941 612.514C113.941 611.185 114.191 610.011 114.691 608.994C115.191 607.972 115.895 607.173 116.805 606.599C117.714 606.026 118.785 605.739 120.018 605.739C121.012 605.739 121.898 605.923 122.677 606.293C123.455 606.656 124.083 607.168 124.56 607.827C125.043 608.486 125.33 609.256 125.421 610.136H122.941C122.805 609.523 122.492 608.994 122.003 608.551C121.52 608.108 120.873 607.886 120.06 607.886C119.35 607.886 118.728 608.074 118.194 608.449C117.665 608.818 117.253 609.347 116.958 610.034C116.663 610.716 116.515 611.523 116.515 612.455C116.515 613.409 116.66 614.233 116.949 614.926C117.239 615.619 117.648 616.156 118.177 616.537C118.711 616.918 119.339 617.108 120.06 617.108C120.543 617.108 120.981 617.02 121.373 616.844C121.77 616.662 122.103 616.403 122.37 616.068C122.643 615.733 122.833 615.33 122.941 614.858H125.421C125.33 615.705 125.055 616.46 124.594 617.125C124.134 617.79 123.518 618.312 122.745 618.693C121.978 619.074 121.077 619.264 120.043 619.264ZM127.882 619V605.909H130.43V619H127.882ZM129.169 603.889C128.726 603.889 128.345 603.741 128.027 603.446C127.715 603.145 127.558 602.787 127.558 602.372C127.558 601.952 127.715 601.594 128.027 601.298C128.345 600.997 128.726 600.847 129.169 600.847C129.612 600.847 129.99 600.997 130.303 601.298C130.621 601.594 130.78 601.952 130.78 602.372C130.78 602.787 130.621 603.145 130.303 603.446C129.99 603.741 129.612 603.889 129.169 603.889ZM138.495 619.256C137.439 619.256 136.495 618.986 135.666 618.446C134.842 617.901 134.194 617.125 133.723 616.119C133.257 615.108 133.024 613.895 133.024 612.48C133.024 611.065 133.26 609.855 133.731 608.849C134.208 607.844 134.862 607.074 135.691 606.54C136.521 606.006 137.461 605.739 138.512 605.739C139.325 605.739 139.978 605.875 140.473 606.148C140.973 606.415 141.359 606.727 141.632 607.085C141.91 607.443 142.126 607.759 142.279 608.031H142.433V601.545H144.981V619H142.492V616.963H142.279C142.126 617.241 141.904 617.56 141.615 617.918C141.331 618.276 140.939 618.588 140.439 618.855C139.939 619.122 139.291 619.256 138.495 619.256ZM139.058 617.082C139.791 617.082 140.41 616.889 140.916 616.503C141.427 616.111 141.814 615.568 142.075 614.875C142.342 614.182 142.475 613.375 142.475 612.455C142.475 611.545 142.345 610.75 142.083 610.068C141.822 609.386 141.439 608.855 140.933 608.474C140.427 608.094 139.802 607.903 139.058 607.903C138.291 607.903 137.652 608.102 137.14 608.5C136.629 608.898 136.242 609.44 135.981 610.128C135.725 610.815 135.598 611.591 135.598 612.455C135.598 613.33 135.728 614.116 135.99 614.815C136.251 615.514 136.637 616.068 137.149 616.477C137.666 616.881 138.302 617.082 139.058 617.082ZM148.354 619V605.909H150.902V619H148.354ZM149.641 603.889C149.198 603.889 148.817 603.741 148.499 603.446C148.187 603.145 148.03 602.787 148.03 602.372C148.03 601.952 148.187 601.594 148.499 601.298C148.817 600.997 149.198 600.847 149.641 600.847C150.084 600.847 150.462 600.997 150.775 601.298C151.093 601.594 151.252 601.952 151.252 602.372C151.252 602.787 151.093 603.145 150.775 603.446C150.462 603.741 150.084 603.889 149.641 603.889ZM158.967 619.256C157.911 619.256 156.967 618.986 156.138 618.446C155.314 617.901 154.666 617.125 154.195 616.119C153.729 615.108 153.496 613.895 153.496 612.48C153.496 611.065 153.732 609.855 154.203 608.849C154.68 607.844 155.334 607.074 156.163 606.54C156.993 606.006 157.933 605.739 158.984 605.739C159.797 605.739 160.45 605.875 160.945 606.148C161.445 606.415 161.831 606.727 162.104 607.085C162.382 607.443 162.598 607.759 162.751 608.031H162.905V601.545H165.453V619H162.964V616.963H162.751C162.598 617.241 162.376 617.56 162.087 617.918C161.803 618.276 161.411 618.588 160.911 618.855C160.411 619.122 159.763 619.256 158.967 619.256ZM159.53 617.082C160.263 617.082 160.882 616.889 161.388 616.503C161.899 616.111 162.286 615.568 162.547 614.875C162.814 614.182 162.947 613.375 162.947 612.455C162.947 611.545 162.817 610.75 162.555 610.068C162.294 609.386 161.911 608.855 161.405 608.474C160.899 608.094 160.274 607.903 159.53 607.903C158.763 607.903 158.124 608.102 157.612 608.5C157.101 608.898 156.714 609.44 156.453 610.128C156.197 610.815 156.07 611.591 156.07 612.455C156.07 613.33 156.2 614.116 156.462 614.815C156.723 615.514 157.109 616.068 157.621 616.477C158.138 616.881 158.774 617.082 159.53 617.082ZM177.119 613.571V605.909H179.676V619H177.17V616.733H177.034C176.732 617.432 176.249 618.014 175.585 618.48C174.926 618.94 174.105 619.17 173.122 619.17C172.281 619.17 171.536 618.986 170.889 618.616C170.247 618.241 169.741 617.688 169.372 616.955C169.008 616.222 168.826 615.315 168.826 614.236V605.909H171.374V613.929C171.374 614.821 171.622 615.531 172.116 616.06C172.61 616.588 173.252 616.852 174.042 616.852C174.519 616.852 174.994 616.733 175.465 616.494C175.943 616.256 176.338 615.895 176.65 615.412C176.968 614.929 177.124 614.315 177.119 613.571ZM185.384 611.227V619H182.836V605.909H185.282V608.04H185.444C185.745 607.347 186.216 606.79 186.858 606.369C187.506 605.949 188.321 605.739 189.304 605.739C190.196 605.739 190.978 605.926 191.648 606.301C192.319 606.67 192.838 607.222 193.208 607.955C193.577 608.687 193.762 609.594 193.762 610.673V619H191.213V610.98C191.213 610.031 190.966 609.29 190.472 608.756C189.978 608.216 189.299 607.946 188.435 607.946C187.844 607.946 187.319 608.074 186.858 608.33C186.404 608.585 186.043 608.96 185.776 609.455C185.515 609.943 185.384 610.534 185.384 611.227ZM203.026 605.909V607.955H195.876V605.909H203.026ZM197.793 602.773H200.342V615.156C200.342 615.651 200.415 616.023 200.563 616.273C200.711 616.517 200.901 616.685 201.134 616.776C201.373 616.861 201.631 616.903 201.91 616.903C202.114 616.903 202.293 616.889 202.447 616.861C202.6 616.832 202.719 616.81 202.805 616.793L203.265 618.898C203.117 618.955 202.907 619.011 202.634 619.068C202.361 619.131 202.02 619.165 201.611 619.17C200.941 619.182 200.316 619.062 199.736 618.812C199.157 618.562 198.688 618.176 198.33 617.653C197.972 617.131 197.793 616.474 197.793 615.685V602.773ZM219.961 613.571V605.909H222.518V619H220.012V616.733H219.876C219.575 617.432 219.092 618.014 218.427 618.48C217.768 618.94 216.947 619.17 215.964 619.17C215.123 619.17 214.379 618.986 213.731 618.616C213.089 618.241 212.583 617.688 212.214 616.955C211.85 616.222 211.669 615.315 211.669 614.236V605.909H214.217V613.929C214.217 614.821 214.464 615.531 214.958 616.06C215.453 616.588 216.095 616.852 216.885 616.852C217.362 616.852 217.836 616.733 218.308 616.494C218.785 616.256 219.18 615.895 219.492 615.412C219.811 614.929 219.967 614.315 219.961 613.571ZM231.789 605.909V607.955H224.638V605.909H231.789ZM226.556 602.773H229.104V615.156C229.104 615.651 229.178 616.023 229.326 616.273C229.474 616.517 229.664 616.685 229.897 616.776C230.135 616.861 230.394 616.903 230.672 616.903C230.877 616.903 231.056 616.889 231.209 616.861C231.363 616.832 231.482 616.81 231.567 616.793L232.027 618.898C231.88 618.955 231.67 619.011 231.397 619.068C231.124 619.131 230.783 619.165 230.374 619.17C229.704 619.182 229.079 619.062 228.499 618.812C227.92 618.562 227.451 618.176 227.093 617.653C226.735 617.131 226.556 616.474 226.556 615.685V602.773ZM242.98 601.545V619H240.431V601.545H242.98ZM249.954 619.29C249.124 619.29 248.374 619.136 247.704 618.83C247.033 618.517 246.502 618.065 246.11 617.474C245.723 616.884 245.53 616.159 245.53 615.301C245.53 614.562 245.672 613.955 245.956 613.477C246.24 613 246.624 612.622 247.107 612.344C247.59 612.065 248.13 611.855 248.726 611.713C249.323 611.571 249.931 611.463 250.55 611.389C251.334 611.298 251.971 611.224 252.459 611.168C252.948 611.105 253.303 611.006 253.525 610.869C253.746 610.733 253.857 610.511 253.857 610.205V610.145C253.857 609.401 253.647 608.824 253.226 608.415C252.811 608.006 252.192 607.801 251.368 607.801C250.51 607.801 249.834 607.991 249.34 608.372C248.851 608.747 248.513 609.165 248.326 609.625L245.931 609.08C246.215 608.284 246.63 607.642 247.175 607.153C247.726 606.659 248.36 606.301 249.076 606.08C249.792 605.852 250.544 605.739 251.334 605.739C251.857 605.739 252.411 605.801 252.996 605.926C253.587 606.045 254.138 606.267 254.65 606.591C255.167 606.915 255.59 607.378 255.919 607.98C256.249 608.577 256.414 609.352 256.414 610.307V619H253.925V617.21H253.823C253.658 617.54 253.411 617.864 253.081 618.182C252.752 618.5 252.329 618.764 251.811 618.974C251.294 619.185 250.675 619.29 249.954 619.29ZM250.507 617.244C251.212 617.244 251.814 617.105 252.314 616.827C252.82 616.548 253.204 616.185 253.465 615.736C253.732 615.281 253.865 614.795 253.865 614.278V612.591C253.775 612.682 253.598 612.767 253.337 612.847C253.081 612.92 252.789 612.986 252.459 613.043C252.13 613.094 251.809 613.142 251.496 613.188C251.184 613.227 250.922 613.261 250.712 613.29C250.218 613.352 249.766 613.457 249.357 613.605C248.954 613.753 248.63 613.966 248.385 614.244C248.147 614.517 248.027 614.881 248.027 615.335C248.027 615.966 248.26 616.443 248.726 616.767C249.192 617.085 249.786 617.244 250.507 617.244ZM259.748 619V601.545H262.297V608.031H262.45C262.598 607.759 262.811 607.443 263.089 607.085C263.368 606.727 263.754 606.415 264.248 606.148C264.743 605.875 265.396 605.739 266.209 605.739C267.266 605.739 268.209 606.006 269.038 606.54C269.868 607.074 270.518 607.844 270.99 608.849C271.467 609.855 271.706 611.065 271.706 612.48C271.706 613.895 271.47 615.108 270.998 616.119C270.527 617.125 269.879 617.901 269.055 618.446C268.231 618.986 267.291 619.256 266.234 619.256C265.439 619.256 264.788 619.122 264.283 618.855C263.783 618.588 263.391 618.276 263.106 617.918C262.822 617.56 262.604 617.241 262.45 616.963H262.237V619H259.748ZM262.246 612.455C262.246 613.375 262.379 614.182 262.646 614.875C262.913 615.568 263.3 616.111 263.805 616.503C264.311 616.889 264.93 617.082 265.663 617.082C266.425 617.082 267.061 616.881 267.572 616.477C268.084 616.068 268.47 615.514 268.731 614.815C268.998 614.116 269.132 613.33 269.132 612.455C269.132 611.591 269.001 610.815 268.74 610.128C268.484 609.44 268.098 608.898 267.581 608.5C267.07 608.102 266.43 607.903 265.663 607.903C264.925 607.903 264.3 608.094 263.788 608.474C263.283 608.855 262.899 609.386 262.638 610.068C262.376 610.75 262.246 611.545 262.246 612.455ZM279.818 619.264C278.59 619.264 277.519 618.983 276.605 618.42C275.69 617.858 274.98 617.071 274.474 616.06C273.968 615.048 273.715 613.866 273.715 612.514C273.715 611.156 273.968 609.969 274.474 608.952C274.98 607.935 275.69 607.145 276.605 606.582C277.519 606.02 278.59 605.739 279.818 605.739C281.045 605.739 282.116 606.02 283.031 606.582C283.945 607.145 284.656 607.935 285.161 608.952C285.667 609.969 285.92 611.156 285.92 612.514C285.92 613.866 285.667 615.048 285.161 616.06C284.656 617.071 283.945 617.858 283.031 618.42C282.116 618.983 281.045 619.264 279.818 619.264ZM279.826 617.125C280.622 617.125 281.281 616.915 281.803 616.494C282.326 616.074 282.712 615.514 282.962 614.815C283.218 614.116 283.346 613.347 283.346 612.506C283.346 611.67 283.218 610.903 282.962 610.205C282.712 609.5 282.326 608.935 281.803 608.509C281.281 608.082 280.622 607.869 279.826 607.869C279.025 607.869 278.36 608.082 277.832 608.509C277.309 608.935 276.92 609.5 276.664 610.205C276.414 610.903 276.289 611.67 276.289 612.506C276.289 613.347 276.414 614.116 276.664 614.815C276.92 615.514 277.309 616.074 277.832 616.494C278.36 616.915 279.025 617.125 279.826 617.125ZM288.5 619V605.909H290.963V607.989H291.1C291.338 607.284 291.759 606.73 292.361 606.327C292.969 605.918 293.657 605.713 294.424 605.713C294.583 605.713 294.77 605.719 294.986 605.73C295.208 605.741 295.381 605.756 295.506 605.773V608.21C295.404 608.182 295.222 608.151 294.961 608.116C294.699 608.077 294.438 608.057 294.176 608.057C293.574 608.057 293.037 608.185 292.566 608.44C292.1 608.69 291.73 609.04 291.458 609.489C291.185 609.932 291.049 610.437 291.049 611.006V619H288.5ZM302.621 619.264C301.331 619.264 300.22 618.989 299.288 618.438C298.362 617.881 297.646 617.099 297.14 616.094C296.64 615.082 296.39 613.898 296.39 612.54C296.39 611.199 296.64 610.017 297.14 608.994C297.646 607.972 298.351 607.173 299.254 606.599C300.163 606.026 301.226 605.739 302.442 605.739C303.18 605.739 303.896 605.861 304.589 606.105C305.282 606.349 305.905 606.733 306.456 607.256C307.007 607.778 307.442 608.457 307.76 609.293C308.078 610.122 308.237 611.131 308.237 612.318V613.222H297.831V611.312H305.74C305.74 610.642 305.604 610.048 305.331 609.531C305.058 609.009 304.675 608.597 304.18 608.295C303.692 607.994 303.118 607.844 302.459 607.844C301.743 607.844 301.118 608.02 300.584 608.372C300.055 608.719 299.646 609.173 299.356 609.736C299.072 610.293 298.93 610.898 298.93 611.551V613.043C298.93 613.918 299.084 614.662 299.39 615.276C299.703 615.889 300.138 616.358 300.694 616.682C301.251 617 301.902 617.159 302.646 617.159C303.129 617.159 303.569 617.091 303.967 616.955C304.365 616.812 304.709 616.602 304.998 616.324C305.288 616.045 305.51 615.702 305.663 615.293L308.075 615.727C307.882 616.437 307.535 617.06 307.035 617.594C306.541 618.122 305.919 618.534 305.169 618.83C304.425 619.119 303.575 619.264 302.621 619.264ZM321.789 619.256C320.732 619.256 319.789 618.986 318.959 618.446C318.135 617.901 317.487 617.125 317.016 616.119C316.55 615.108 316.317 613.895 316.317 612.48C316.317 611.065 316.553 609.855 317.024 608.849C317.502 607.844 318.155 607.074 318.985 606.54C319.814 606.006 320.754 605.739 321.806 605.739C322.618 605.739 323.272 605.875 323.766 606.148C324.266 606.415 324.652 606.727 324.925 607.085C325.203 607.443 325.419 607.759 325.573 608.031H325.726V601.545H328.274V619H325.786V616.963H325.573C325.419 617.241 325.198 617.56 324.908 617.918C324.624 618.276 324.232 618.588 323.732 618.855C323.232 619.122 322.584 619.256 321.789 619.256ZM322.351 617.082C323.084 617.082 323.703 616.889 324.209 616.503C324.72 616.111 325.107 615.568 325.368 614.875C325.635 614.182 325.769 613.375 325.769 612.455C325.769 611.545 325.638 610.75 325.377 610.068C325.115 609.386 324.732 608.855 324.226 608.474C323.72 608.094 323.095 607.903 322.351 607.903C321.584 607.903 320.945 608.102 320.433 608.5C319.922 608.898 319.536 609.44 319.274 610.128C319.019 610.815 318.891 611.591 318.891 612.455C318.891 613.33 319.022 614.116 319.283 614.815C319.544 615.514 319.931 616.068 320.442 616.477C320.959 616.881 321.595 617.082 322.351 617.082ZM337.162 619.264C335.934 619.264 334.863 618.983 333.949 618.42C333.034 617.858 332.324 617.071 331.818 616.06C331.312 615.048 331.059 613.866 331.059 612.514C331.059 611.156 331.312 609.969 331.818 608.952C332.324 607.935 333.034 607.145 333.949 606.582C334.863 606.02 335.934 605.739 337.162 605.739C338.389 605.739 339.46 606.02 340.375 606.582C341.289 607.145 342 607.935 342.505 608.952C343.011 609.969 343.264 611.156 343.264 612.514C343.264 613.866 343.011 615.048 342.505 616.06C342 617.071 341.289 617.858 340.375 618.42C339.46 618.983 338.389 619.264 337.162 619.264ZM337.17 617.125C337.966 617.125 338.625 616.915 339.147 616.494C339.67 616.074 340.057 615.514 340.307 614.815C340.562 614.116 340.69 613.347 340.69 612.506C340.69 611.67 340.562 610.903 340.307 610.205C340.057 609.5 339.67 608.935 339.147 608.509C338.625 608.082 337.966 607.869 337.17 607.869C336.369 607.869 335.704 608.082 335.176 608.509C334.653 608.935 334.264 609.5 334.008 610.205C333.758 610.903 333.633 611.67 333.633 612.506C333.633 613.347 333.758 614.116 334.008 614.815C334.264 615.514 334.653 616.074 335.176 616.494C335.704 616.915 336.369 617.125 337.17 617.125ZM348.393 601.545V619H345.844V601.545H348.393ZM357.071 619.264C355.844 619.264 354.773 618.983 353.858 618.42C352.943 617.858 352.233 617.071 351.727 616.06C351.222 615.048 350.969 613.866 350.969 612.514C350.969 611.156 351.222 609.969 351.727 608.952C352.233 607.935 352.943 607.145 353.858 606.582C354.773 606.02 355.844 605.739 357.071 605.739C358.298 605.739 359.369 606.02 360.284 606.582C361.199 607.145 361.909 607.935 362.415 608.952C362.921 609.969 363.173 611.156 363.173 612.514C363.173 613.866 362.921 615.048 362.415 616.06C361.909 617.071 361.199 617.858 360.284 618.42C359.369 618.983 358.298 619.264 357.071 619.264ZM357.08 617.125C357.875 617.125 358.534 616.915 359.057 616.494C359.58 616.074 359.966 615.514 360.216 614.815C360.472 614.116 360.6 613.347 360.6 612.506C360.6 611.67 360.472 610.903 360.216 610.205C359.966 609.5 359.58 608.935 359.057 608.509C358.534 608.082 357.875 607.869 357.08 607.869C356.279 607.869 355.614 608.082 355.085 608.509C354.563 608.935 354.173 609.5 353.918 610.205C353.668 610.903 353.543 611.67 353.543 612.506C353.543 613.347 353.668 614.116 353.918 614.815C354.173 615.514 354.563 616.074 355.085 616.494C355.614 616.915 356.279 617.125 357.08 617.125ZM365.754 619V605.909H368.217V607.989H368.353C368.592 607.284 369.012 606.73 369.615 606.327C370.223 605.918 370.91 605.713 371.677 605.713C371.836 605.713 372.024 605.719 372.24 605.73C372.461 605.741 372.635 605.756 372.76 605.773V608.21C372.657 608.182 372.475 608.151 372.214 608.116C371.953 608.077 371.691 608.057 371.43 608.057C370.828 608.057 370.291 608.185 369.819 608.44C369.353 608.69 368.984 609.04 368.711 609.489C368.439 609.932 368.302 610.437 368.302 611.006V619H365.754ZM379.874 619.264C378.584 619.264 377.474 618.989 376.542 618.438C375.616 617.881 374.9 617.099 374.394 616.094C373.894 615.082 373.644 613.898 373.644 612.54C373.644 611.199 373.894 610.017 374.394 608.994C374.9 607.972 375.604 607.173 376.508 606.599C377.417 606.026 378.479 605.739 379.695 605.739C380.434 605.739 381.15 605.861 381.843 606.105C382.536 606.349 383.158 606.733 383.709 607.256C384.26 607.778 384.695 608.457 385.013 609.293C385.331 610.122 385.491 611.131 385.491 612.318V613.222H375.084V611.312H382.993C382.993 610.642 382.857 610.048 382.584 609.531C382.312 609.009 381.928 608.597 381.434 608.295C380.945 607.994 380.371 607.844 379.712 607.844C378.996 607.844 378.371 608.02 377.837 608.372C377.309 608.719 376.9 609.173 376.61 609.736C376.326 610.293 376.184 610.898 376.184 611.551V613.043C376.184 613.918 376.337 614.662 376.644 615.276C376.956 615.889 377.391 616.358 377.948 616.682C378.505 617 379.155 617.159 379.9 617.159C380.383 617.159 380.823 617.091 381.221 616.955C381.618 616.812 381.962 616.602 382.252 616.324C382.542 616.045 382.763 615.702 382.917 615.293L385.329 615.727C385.135 616.437 384.789 617.06 384.289 617.594C383.795 618.122 383.172 618.534 382.422 618.83C381.678 619.119 380.829 619.264 379.874 619.264ZM389.733 619.162C389.267 619.162 388.867 618.997 388.531 618.668C388.196 618.332 388.028 617.929 388.028 617.457C388.028 616.991 388.196 616.594 388.531 616.264C388.867 615.929 389.267 615.761 389.733 615.761C390.199 615.761 390.599 615.929 390.935 616.264C391.27 616.594 391.438 616.991 391.438 617.457C391.438 617.77 391.358 618.057 391.199 618.318C391.045 618.574 390.841 618.778 390.585 618.932C390.33 619.085 390.045 619.162 389.733 619.162Z" fill="black"/>
<rect x="36" y="749" width="330" height="48" rx="6" fill="#1B1B1B"/>
<rect x="36" y="749" width="330" height="48" rx="6" stroke="#1B1B1B" stroke-width="4"/>
<path d="M178.404 780.956L175.566 780.89C175.405 780.274 175.309 777.502 175.28 772.574V771.012C175.28 769.765 175.397 768.819 175.632 768.174C175.867 767.514 176.358 766.986 177.106 766.59C177.487 766.399 178.015 766.304 178.69 766.304C179.379 766.304 179.907 766.348 180.274 766.436C181.257 766.641 181.924 767.023 182.276 767.58C182.643 768.137 182.826 768.885 182.826 769.824C182.826 771.129 182.481 772.09 181.792 772.706C182.144 772.75 182.496 772.926 182.848 773.234C183.2 773.542 183.486 773.857 183.706 774.18C184.087 774.767 184.278 775.566 184.278 776.578C184.278 778.162 183.794 779.291 182.826 779.966C181.873 780.626 180.399 780.956 178.404 780.956ZM177.04 770.242L177.084 772.75C177.113 772.75 177.363 772.721 177.832 772.662C178.301 772.589 178.697 772.515 179.02 772.442C180.501 772.09 181.242 771.247 181.242 769.912C181.242 769.252 181.044 768.768 180.648 768.46C180.267 768.152 179.761 767.998 179.13 767.998C178.338 767.998 177.803 768.137 177.524 768.416C177.407 768.533 177.311 768.636 177.238 768.724C177.165 768.797 177.113 768.922 177.084 769.098C177.055 769.274 177.033 769.399 177.018 769.472C177.018 769.545 177.018 769.685 177.018 769.89C177.033 770.095 177.04 770.213 177.04 770.242ZM181.99 774.928C181.843 774.767 181.616 774.62 181.308 774.488C181 774.356 180.553 774.29 179.966 774.29C179.394 774.29 178.411 774.385 177.018 774.576C177.018 776.864 177.055 778.411 177.128 779.218C178.844 779.218 180.047 779.108 180.736 778.888C181.425 778.653 181.887 778.375 182.122 778.052C182.371 777.715 182.496 777.363 182.496 776.996C182.496 776.615 182.489 776.351 182.474 776.204C182.474 776.043 182.43 775.83 182.342 775.566C182.269 775.287 182.151 775.075 181.99 774.928ZM185.99 771.584C186.049 771.335 186.174 771.129 186.364 770.968C186.555 770.792 186.746 770.704 186.936 770.704C187.142 770.704 187.296 770.741 187.398 770.814C187.516 770.887 187.582 770.953 187.596 771.012C187.626 771.071 187.655 771.173 187.684 771.32C187.596 772.464 187.552 773.498 187.552 774.422C187.552 775.331 187.662 776.38 187.882 777.568C188.102 778.741 188.344 779.328 188.608 779.328C189.004 779.328 189.503 779.108 190.104 778.668C190.72 778.228 191.16 777.766 191.424 777.282C191.248 775.17 191.16 773.359 191.16 771.848C191.16 771.54 191.256 771.276 191.446 771.056C191.652 770.836 191.894 770.726 192.172 770.726C192.627 770.726 192.854 771.034 192.854 771.65C192.854 772.691 192.928 774.239 193.074 776.292C193.236 778.345 193.397 779.651 193.558 780.208C193.588 780.325 193.602 780.465 193.602 780.626C193.602 780.773 193.5 780.912 193.294 781.044C193.104 781.191 192.847 781.264 192.524 781.264C192.216 781.264 192.011 781.088 191.908 780.736C191.879 780.443 191.806 780.003 191.688 779.416C190.662 780.487 189.628 781.022 188.586 781.022C188.102 781.022 187.67 780.839 187.288 780.472C186.907 780.105 186.606 779.607 186.386 778.976C186.005 777.759 185.814 776.615 185.814 775.544C185.814 774.473 185.873 773.153 185.99 771.584ZM195.393 770.726L196.493 770.748C196.742 770.748 196.882 770.741 196.911 770.726V766.216C196.926 765.967 197.05 765.754 197.285 765.578C197.52 765.402 197.74 765.314 197.945 765.314C198.15 765.314 198.312 765.38 198.429 765.512C198.561 765.644 198.62 765.849 198.605 766.128C198.59 766.407 198.583 767.932 198.583 770.704L201.157 770.616C201.597 770.616 201.817 770.873 201.817 771.386C201.817 771.767 201.7 772.053 201.465 772.244C201.245 772.435 201.003 772.537 200.739 772.552C200.49 772.567 200.24 772.574 199.991 772.574L198.649 772.552C198.649 773.153 198.708 774.341 198.825 776.116C198.957 777.891 199.06 779.042 199.133 779.57C199.206 780.083 199.221 780.421 199.177 780.582C199.133 780.729 199.052 780.831 198.935 780.89C198.744 780.978 198.488 781.022 198.165 781.022C197.842 781.022 197.652 780.846 197.593 780.494C197.3 778.573 197.102 775.933 196.999 772.574C196.867 772.589 196.361 772.596 195.481 772.596C194.601 772.596 194.161 772.339 194.161 771.826C194.161 771.093 194.572 770.726 195.393 770.726ZM202.955 770.726L204.055 770.748C204.305 770.748 204.444 770.741 204.473 770.726V766.216C204.488 765.967 204.613 765.754 204.847 765.578C205.082 765.402 205.302 765.314 205.507 765.314C205.713 765.314 205.874 765.38 205.991 765.512C206.123 765.644 206.182 765.849 206.167 766.128C206.153 766.407 206.145 767.932 206.145 770.704L208.719 770.616C209.159 770.616 209.379 770.873 209.379 771.386C209.379 771.767 209.262 772.053 209.027 772.244C208.807 772.435 208.565 772.537 208.301 772.552C208.052 772.567 207.803 772.574 207.553 772.574L206.211 772.552C206.211 773.153 206.27 774.341 206.387 776.116C206.519 777.891 206.622 779.042 206.695 779.57C206.769 780.083 206.783 780.421 206.739 780.582C206.695 780.729 206.615 780.831 206.497 780.89C206.307 780.978 206.05 781.022 205.727 781.022C205.405 781.022 205.214 780.846 205.155 780.494C204.862 778.573 204.664 775.933 204.561 772.574C204.429 772.589 203.923 772.596 203.043 772.596C202.163 772.596 201.723 772.339 201.723 771.826C201.723 771.093 202.134 770.726 202.955 770.726ZM213.862 770.748C214.918 770.748 215.783 771.254 216.458 772.266C217.147 773.278 217.492 774.495 217.492 775.918C217.492 777.326 217.14 778.529 216.436 779.526C215.747 780.523 214.823 781.022 213.664 781.022C212.52 781.022 211.596 780.516 210.892 779.504C210.188 778.477 209.836 777.341 209.836 776.094C209.836 774.495 210.159 773.219 210.804 772.266C211.493 771.254 212.513 770.748 213.862 770.748ZM213.598 772.552C212.982 772.552 212.476 772.875 212.08 773.52C211.684 774.165 211.486 774.847 211.486 775.566C211.486 776.681 211.706 777.531 212.146 778.118C212.586 778.705 213.085 778.998 213.642 778.998C214.639 778.998 215.277 778.565 215.556 777.7C215.673 777.289 215.732 776.776 215.732 776.16C215.732 773.755 215.021 772.552 213.598 772.552ZM219.677 780.318L219.435 771.386C219.435 771.107 219.53 770.88 219.721 770.704C219.912 770.528 220.102 770.44 220.293 770.44C220.762 770.44 221.034 770.638 221.107 771.034C221.166 771.43 221.195 771.841 221.195 772.266C221.987 771.225 222.977 770.704 224.165 770.704C225.984 770.704 226.893 772.779 226.893 776.93C226.893 777.311 226.893 777.891 226.893 778.668C226.893 779.431 226.849 779.988 226.761 780.34C226.658 780.78 226.343 781 225.815 781C225.463 781 225.287 780.765 225.287 780.296L225.309 779.064C225.309 777.363 225.25 776.204 225.133 775.588C225.03 774.957 224.928 774.459 224.825 774.092C224.576 773.3 224.172 772.904 223.615 772.904C222.882 772.904 222.368 773.168 222.075 773.696C221.752 774.268 221.562 774.943 221.503 775.72C221.4 777.084 221.349 778.529 221.349 780.054C221.349 780.347 221.239 780.582 221.019 780.758C220.799 780.934 220.535 781.022 220.227 781.022C219.86 781.022 219.677 780.787 219.677 780.318Z" fill="white"/>
<path d="M62.1287 838.493C62.0756 838.022 61.8569 837.658 61.4724 837.399C61.088 837.137 60.6041 837.006 60.0207 837.006C59.6031 837.006 59.2418 837.073 58.9369 837.205C58.632 837.335 58.395 837.513 58.226 837.742C58.0603 837.968 57.9774 838.224 57.9774 838.513C57.9774 838.755 58.0337 838.964 58.1464 839.139C58.2624 839.315 58.4132 839.462 58.5988 839.582C58.7878 839.698 58.9899 839.795 59.2054 839.875C59.4208 839.951 59.628 840.014 59.8268 840.064L60.8211 840.322C61.146 840.402 61.4791 840.51 61.8204 840.646C62.1618 840.781 62.4783 840.96 62.77 841.183C63.0617 841.405 63.297 841.68 63.476 842.008C63.6583 842.336 63.7494 842.729 63.7494 843.186C63.7494 843.763 63.6003 844.275 63.302 844.722C63.007 845.17 62.5778 845.523 62.0143 845.781C61.4542 846.04 60.7764 846.169 59.981 846.169C59.2186 846.169 58.5591 846.048 58.0023 845.806C57.4454 845.564 57.0096 845.221 56.6947 844.777C56.3799 844.33 56.2059 843.799 56.1727 843.186H57.7139C57.7437 843.554 57.8631 843.861 58.0719 844.106C58.284 844.348 58.5541 844.528 58.8822 844.648C59.2137 844.764 59.5766 844.822 59.971 844.822C60.4052 844.822 60.7913 844.754 61.1294 844.618C61.4708 844.479 61.7392 844.286 61.9348 844.041C62.1303 843.793 62.2281 843.503 62.2281 843.171C62.2281 842.87 62.1419 842.623 61.9696 842.43C61.8006 842.238 61.5702 842.079 61.2785 841.953C60.9902 841.827 60.6637 841.716 60.2991 841.62L59.096 841.292C58.2807 841.07 57.6344 840.743 57.1571 840.312C56.6831 839.882 56.4461 839.312 56.4461 838.602C56.4461 838.016 56.6052 837.504 56.9234 837.066C57.2416 836.629 57.6725 836.289 58.216 836.047C58.7596 835.802 59.3728 835.679 60.0555 835.679C60.7449 835.679 61.3531 835.8 61.8801 836.042C62.4104 836.284 62.828 836.617 63.1329 837.041C63.4379 837.462 63.597 837.946 63.6102 838.493H62.1287ZM68.6031 846.154C67.8507 846.154 67.2027 845.993 66.6592 845.672C66.1189 845.347 65.7013 844.891 65.4063 844.305C65.1147 843.715 64.9688 843.024 64.9688 842.232C64.9688 841.449 65.1147 840.76 65.4063 840.163C65.7013 839.567 66.1123 839.101 66.6393 838.766C67.1696 838.432 67.7894 838.264 68.4986 838.264C68.9295 838.264 69.3471 838.335 69.7515 838.478C70.1558 838.621 70.5188 838.844 70.8403 839.149C71.1618 839.454 71.4153 839.85 71.6009 840.337C71.7865 840.821 71.8793 841.41 71.8793 842.102V842.629H65.809V841.516H70.4227C70.4227 841.125 70.3431 840.778 70.184 840.477C70.0249 840.172 69.8012 839.931 69.5129 839.756C69.2278 839.58 68.8931 839.492 68.5086 839.492C68.091 839.492 67.7264 839.595 67.4148 839.8C67.1066 840.003 66.868 840.268 66.6989 840.596C66.5332 840.921 66.4504 841.274 66.4504 841.655V842.525C66.4504 843.035 66.5398 843.469 66.7188 843.827C66.9011 844.185 67.1547 844.459 67.4795 844.648C67.8043 844.833 68.1838 844.926 68.618 844.926C68.8997 844.926 69.1566 844.886 69.3886 844.807C69.6206 844.724 69.8211 844.601 69.9901 844.439C70.1592 844.277 70.2884 844.076 70.3779 843.837L71.7849 844.091C71.6722 844.505 71.47 844.868 71.1783 845.18C70.89 845.488 70.5271 845.728 70.0896 845.901C69.6554 846.07 69.1599 846.154 68.6031 846.154ZM76.2333 846.149C75.6168 846.149 75.0667 845.992 74.5828 845.677C74.1022 845.359 73.7243 844.906 73.4492 844.32C73.1774 843.73 73.0416 843.022 73.0416 842.197C73.0416 841.371 73.1791 840.665 73.4542 840.079C73.7326 839.492 74.1138 839.043 74.5977 838.732C75.0816 838.42 75.6301 838.264 76.2433 838.264C76.7172 838.264 77.0984 838.344 77.3867 838.503C77.6784 838.659 77.9038 838.841 78.0629 839.05C78.2253 839.259 78.3512 839.442 78.4407 839.602H78.5302V835.818H80.0167V846H78.565V844.812H78.4407C78.3512 844.974 78.222 845.16 78.0529 845.369C77.8872 845.577 77.6585 845.76 77.3668 845.915C77.0752 846.071 76.6973 846.149 76.2333 846.149ZM76.5614 844.881C76.989 844.881 77.3503 844.769 77.6453 844.543C77.9435 844.315 78.1689 843.998 78.3214 843.594C78.4772 843.189 78.5551 842.719 78.5551 842.182C78.5551 841.652 78.4788 841.187 78.3264 840.79C78.1739 840.392 77.9502 840.082 77.6552 839.86C77.3602 839.638 76.9956 839.527 76.5614 839.527C76.114 839.527 75.7411 839.643 75.4428 839.875C75.1445 840.107 74.9192 840.424 74.7667 840.825C74.6176 841.226 74.543 841.678 74.543 842.182C74.543 842.692 74.6192 843.151 74.7717 843.559C74.9241 843.967 75.1495 844.29 75.4478 844.528C75.7494 844.764 76.1206 844.881 76.5614 844.881ZM88.3941 846.149C87.7776 846.149 87.2274 845.992 86.7435 845.677C86.2629 845.359 85.8851 844.906 85.61 844.32C85.3382 843.73 85.2023 843.022 85.2023 842.197C85.2023 841.371 85.3399 840.665 85.615 840.079C85.8934 839.492 86.2745 839.043 86.7584 838.732C87.2423 838.42 87.7909 838.264 88.404 838.264C88.878 838.264 89.2591 838.344 89.5475 838.503C89.8391 838.659 90.0645 838.841 90.2236 839.05C90.386 839.259 90.512 839.442 90.6015 839.602H90.6909V835.818H92.1775V846H90.7257V844.812H90.6015C90.512 844.974 90.3827 845.16 90.2137 845.369C90.048 845.577 89.8193 845.76 89.5276 845.915C89.2359 846.071 88.8581 846.149 88.3941 846.149ZM88.7222 844.881C89.1498 844.881 89.511 844.769 89.806 844.543C90.1043 844.315 90.3297 843.998 90.4821 843.594C90.6379 843.189 90.7158 842.719 90.7158 842.182C90.7158 841.652 90.6396 841.187 90.4871 840.79C90.3346 840.392 90.1109 840.082 89.8159 839.86C89.521 839.638 89.1564 839.527 88.7222 839.527C88.2748 839.527 87.9019 839.643 87.6036 839.875C87.3053 840.107 87.0799 840.424 86.9275 840.825C86.7783 841.226 86.7037 841.678 86.7037 842.182C86.7037 842.692 86.78 843.151 86.9324 843.559C87.0849 843.967 87.3103 844.29 87.6086 844.528C87.9102 844.764 88.2814 844.881 88.7222 844.881ZM97.3617 846.154C96.6458 846.154 96.021 845.99 95.4874 845.662C94.9538 845.334 94.5395 844.875 94.2445 844.285C93.9495 843.695 93.802 843.005 93.802 842.217C93.802 841.424 93.9495 840.732 94.2445 840.138C94.5395 839.545 94.9538 839.085 95.4874 838.756C96.021 838.428 96.6458 838.264 97.3617 838.264C98.0776 838.264 98.7024 838.428 99.236 838.756C99.7696 839.085 100.184 839.545 100.479 840.138C100.774 840.732 100.921 841.424 100.921 842.217C100.921 843.005 100.774 843.695 100.479 844.285C100.184 844.875 99.7696 845.334 99.236 845.662C98.7024 845.99 98.0776 846.154 97.3617 846.154ZM97.3667 844.906C97.8307 844.906 98.2151 844.784 98.5201 844.538C98.825 844.293 99.0504 843.967 99.1962 843.559C99.3454 843.151 99.4199 842.702 99.4199 842.212C99.4199 841.724 99.3454 841.277 99.1962 840.869C99.0504 840.458 98.825 840.129 98.5201 839.88C98.2151 839.631 97.8307 839.507 97.3667 839.507C96.8993 839.507 96.5115 839.631 96.2033 839.88C95.8984 840.129 95.6714 840.458 95.5222 840.869C95.3764 841.277 95.3035 841.724 95.3035 842.212C95.3035 842.702 95.3764 843.151 95.5222 843.559C95.6714 843.967 95.8984 844.293 96.2033 844.538C96.5115 844.784 96.8993 844.906 97.3667 844.906ZM109.269 846.154C108.517 846.154 107.869 845.993 107.325 845.672C106.785 845.347 106.367 844.891 106.072 844.305C105.78 843.715 105.635 843.024 105.635 842.232C105.635 841.449 105.78 840.76 106.072 840.163C106.367 839.567 106.778 839.101 107.305 838.766C107.835 838.432 108.455 838.264 109.164 838.264C109.595 838.264 110.013 838.335 110.417 838.478C110.822 838.621 111.185 838.844 111.506 839.149C111.828 839.454 112.081 839.85 112.267 840.337C112.452 840.821 112.545 841.41 112.545 842.102V842.629H106.475V841.516H111.088C111.088 841.125 111.009 840.778 110.85 840.477C110.691 840.172 110.467 839.931 110.179 839.756C109.894 839.58 109.559 839.492 109.174 839.492C108.757 839.492 108.392 839.595 108.081 839.8C107.772 840.003 107.534 840.268 107.365 840.596C107.199 840.921 107.116 841.274 107.116 841.655V842.525C107.116 843.035 107.206 843.469 107.385 843.827C107.567 844.185 107.821 844.459 108.145 844.648C108.47 844.833 108.85 844.926 109.284 844.926C109.566 844.926 109.822 844.886 110.054 844.807C110.286 844.724 110.487 844.601 110.656 844.439C110.825 844.277 110.954 844.076 111.044 843.837L112.451 844.091C112.338 844.505 112.136 844.868 111.844 845.18C111.556 845.488 111.193 845.728 110.755 845.901C110.321 846.07 109.826 846.154 109.269 846.154ZM114.041 846V838.364H115.527V846H114.041ZM114.791 837.185C114.533 837.185 114.311 837.099 114.125 836.927C113.943 836.751 113.852 836.542 113.852 836.3C113.852 836.055 113.943 835.846 114.125 835.674C114.311 835.498 114.533 835.411 114.791 835.411C115.05 835.411 115.27 835.498 115.452 835.674C115.638 835.846 115.731 836.055 115.731 836.3C115.731 836.542 115.638 836.751 115.452 836.927C115.27 837.099 115.05 837.185 114.791 837.185ZM122.21 842.833V838.364H123.702V846H122.24V844.678H122.16C121.985 845.085 121.703 845.425 121.315 845.697C120.931 845.965 120.452 846.099 119.879 846.099C119.388 846.099 118.954 845.992 118.576 845.776C118.201 845.558 117.906 845.234 117.691 844.807C117.479 844.379 117.373 843.851 117.373 843.221V838.364H118.859V843.042C118.859 843.562 119.004 843.977 119.292 844.285C119.58 844.593 119.955 844.747 120.415 844.747C120.694 844.747 120.971 844.678 121.246 844.538C121.524 844.399 121.754 844.189 121.937 843.907C122.122 843.625 122.213 843.267 122.21 842.833ZM131.267 840.228L129.92 840.467C129.864 840.294 129.774 840.13 129.652 839.974C129.532 839.819 129.37 839.691 129.164 839.592C128.959 839.492 128.702 839.442 128.394 839.442C127.973 839.442 127.621 839.537 127.34 839.726C127.058 839.911 126.917 840.152 126.917 840.447C126.917 840.702 127.012 840.907 127.201 841.063C127.389 841.219 127.694 841.347 128.115 841.446L129.328 841.724C130.031 841.887 130.555 842.137 130.899 842.475C131.244 842.813 131.416 843.252 131.416 843.793C131.416 844.25 131.284 844.658 131.019 845.016C130.757 845.37 130.391 845.649 129.92 845.851C129.453 846.053 128.911 846.154 128.294 846.154C127.439 846.154 126.741 845.972 126.201 845.607C125.661 845.239 125.33 844.717 125.207 844.041L126.644 843.822C126.733 844.197 126.917 844.48 127.196 844.673C127.474 844.862 127.837 844.956 128.284 844.956C128.772 844.956 129.161 844.855 129.453 844.653C129.744 844.447 129.89 844.197 129.89 843.902C129.89 843.663 129.801 843.463 129.622 843.3C129.446 843.138 129.176 843.015 128.811 842.933L127.519 842.649C126.806 842.487 126.279 842.228 125.938 841.874C125.6 841.519 125.431 841.07 125.431 840.526C125.431 840.076 125.557 839.681 125.808 839.343C126.06 839.005 126.408 838.741 126.853 838.553C127.297 838.36 127.805 838.264 128.379 838.264C129.204 838.264 129.854 838.443 130.328 838.801C130.802 839.156 131.115 839.631 131.267 840.228ZM132.897 846V838.364H134.324V839.607H134.418C134.577 839.186 134.837 838.857 135.199 838.622C135.56 838.384 135.993 838.264 136.496 838.264C137.007 838.264 137.434 838.384 137.779 838.622C138.127 838.861 138.384 839.189 138.55 839.607H138.629C138.811 839.199 139.101 838.874 139.499 838.632C139.897 838.387 140.371 838.264 140.921 838.264C141.614 838.264 142.179 838.481 142.616 838.915C143.057 839.35 143.278 840.004 143.278 840.879V846H141.791V841.018C141.791 840.501 141.65 840.127 141.368 839.895C141.087 839.663 140.75 839.547 140.359 839.547C139.875 839.547 139.499 839.696 139.231 839.994C138.962 840.289 138.828 840.669 138.828 841.133V846H137.346V840.924C137.346 840.51 137.217 840.177 136.959 839.925C136.7 839.673 136.364 839.547 135.949 839.547C135.668 839.547 135.408 839.621 135.169 839.771C134.934 839.916 134.743 840.12 134.597 840.382C134.455 840.644 134.383 840.947 134.383 841.292V846H132.897ZM148.333 846.154C147.617 846.154 146.992 845.99 146.458 845.662C145.925 845.334 145.51 844.875 145.215 844.285C144.92 843.695 144.773 843.005 144.773 842.217C144.773 841.424 144.92 840.732 145.215 840.138C145.51 839.545 145.925 839.085 146.458 838.756C146.992 838.428 147.617 838.264 148.333 838.264C149.048 838.264 149.673 838.428 150.207 838.756C150.74 839.085 151.155 839.545 151.45 840.138C151.745 840.732 151.892 841.424 151.892 842.217C151.892 843.005 151.745 843.695 151.45 844.285C151.155 844.875 150.74 845.334 150.207 845.662C149.673 845.99 149.048 846.154 148.333 846.154ZM148.337 844.906C148.802 844.906 149.186 844.784 149.491 844.538C149.796 844.293 150.021 843.967 150.167 843.559C150.316 843.151 150.391 842.702 150.391 842.212C150.391 841.724 150.316 841.277 150.167 840.869C150.021 840.458 149.796 840.129 149.491 839.88C149.186 839.631 148.802 839.507 148.337 839.507C147.87 839.507 147.482 839.631 147.174 839.88C146.869 840.129 146.642 840.458 146.493 840.869C146.347 841.277 146.274 841.724 146.274 842.212C146.274 842.702 146.347 843.151 146.493 843.559C146.642 843.967 146.869 844.293 147.174 844.538C147.482 844.784 147.87 844.906 148.337 844.906ZM156.256 846.149C155.64 846.149 155.089 845.992 154.606 845.677C154.125 845.359 153.747 844.906 153.472 844.32C153.2 843.73 153.064 843.022 153.064 842.197C153.064 841.371 153.202 840.665 153.477 840.079C153.755 839.492 154.137 839.043 154.62 838.732C155.104 838.42 155.653 838.264 156.266 838.264C156.74 838.264 157.121 838.344 157.41 838.503C157.701 838.659 157.927 838.841 158.086 839.05C158.248 839.259 158.374 839.442 158.464 839.602H158.553V835.818H160.039V846H158.588V844.812H158.464C158.374 844.974 158.245 845.16 158.076 845.369C157.91 845.577 157.681 845.76 157.39 845.915C157.098 846.071 156.72 846.149 156.256 846.149ZM156.584 844.881C157.012 844.881 157.373 844.769 157.668 844.543C157.966 844.315 158.192 843.998 158.344 843.594C158.5 843.189 158.578 842.719 158.578 842.182C158.578 841.652 158.502 841.187 158.349 840.79C158.197 840.392 157.973 840.082 157.678 839.86C157.383 839.638 157.018 839.527 156.584 839.527C156.137 839.527 155.764 839.643 155.466 839.875C155.167 840.107 154.942 840.424 154.789 840.825C154.64 841.226 154.566 841.678 154.566 842.182C154.566 842.692 154.642 843.151 154.794 843.559C154.947 843.967 155.172 844.29 155.471 844.528C155.772 844.764 156.143 844.881 156.584 844.881ZM169.123 838.364V839.557H164.952V838.364H169.123ZM166.07 836.534H167.557V843.758C167.557 844.046 167.6 844.263 167.686 844.409C167.772 844.552 167.883 844.649 168.019 844.702C168.158 844.752 168.309 844.777 168.472 844.777C168.591 844.777 168.695 844.769 168.785 844.752C168.874 844.736 168.944 844.722 168.994 844.712L169.262 845.94C169.176 845.973 169.053 846.007 168.894 846.04C168.735 846.076 168.536 846.096 168.298 846.099C167.906 846.106 167.542 846.036 167.204 845.891C166.866 845.745 166.592 845.519 166.383 845.214C166.175 844.91 166.07 844.527 166.07 844.066V836.534ZM173.822 846.154C173.07 846.154 172.422 845.993 171.878 845.672C171.338 845.347 170.921 844.891 170.626 844.305C170.334 843.715 170.188 843.024 170.188 842.232C170.188 841.449 170.334 840.76 170.626 840.163C170.921 839.567 171.332 839.101 171.859 838.766C172.389 838.432 173.009 838.264 173.718 838.264C174.149 838.264 174.566 838.335 174.971 838.478C175.375 838.621 175.738 838.844 176.06 839.149C176.381 839.454 176.635 839.85 176.82 840.337C177.006 840.821 177.099 841.41 177.099 842.102V842.629H171.028V841.516H175.642C175.642 841.125 175.562 840.778 175.403 840.477C175.244 840.172 175.02 839.931 174.732 839.756C174.447 839.58 174.112 839.492 173.728 839.492C173.31 839.492 172.946 839.595 172.634 839.8C172.326 840.003 172.087 840.268 171.918 840.596C171.753 840.921 171.67 841.274 171.67 841.655V842.525C171.67 843.035 171.759 843.469 171.938 843.827C172.12 844.185 172.374 844.459 172.699 844.648C173.024 844.833 173.403 844.926 173.837 844.926C174.119 844.926 174.376 844.886 174.608 844.807C174.84 844.724 175.04 844.601 175.209 844.439C175.378 844.277 175.508 844.076 175.597 843.837L177.004 844.091C176.891 844.505 176.689 844.868 176.398 845.18C176.109 845.488 175.746 845.728 175.309 845.901C174.875 846.07 174.379 846.154 173.822 846.154ZM178.594 846V838.364H180.021V839.607H180.115C180.274 839.186 180.535 838.857 180.896 838.622C181.257 838.384 181.69 838.264 182.193 838.264C182.704 838.264 183.131 838.384 183.476 838.622C183.824 838.861 184.081 839.189 184.247 839.607H184.326C184.508 839.199 184.799 838.874 185.196 838.632C185.594 838.387 186.068 838.264 186.618 838.264C187.311 838.264 187.876 838.481 188.313 838.915C188.754 839.35 188.975 840.004 188.975 840.879V846H187.488V841.018C187.488 840.501 187.347 840.127 187.066 839.895C186.784 839.663 186.447 839.547 186.056 839.547C185.572 839.547 185.196 839.696 184.928 839.994C184.659 840.289 184.525 840.669 184.525 841.133V846H183.044V840.924C183.044 840.51 182.914 840.177 182.656 839.925C182.397 839.673 182.061 839.547 181.647 839.547C181.365 839.547 181.105 839.621 180.866 839.771C180.631 839.916 180.44 840.12 180.294 840.382C180.152 840.644 180.08 840.947 180.08 841.292V846H178.594ZM190.813 848.864V838.364H192.265V839.602H192.389C192.475 839.442 192.599 839.259 192.762 839.05C192.924 838.841 193.15 838.659 193.438 838.503C193.726 838.344 194.108 838.264 194.581 838.264C195.198 838.264 195.748 838.42 196.232 838.732C196.716 839.043 197.095 839.492 197.371 840.079C197.649 840.665 197.788 841.371 197.788 842.197C197.788 843.022 197.651 843.73 197.375 844.32C197.1 844.906 196.723 845.359 196.242 845.677C195.761 845.992 195.213 846.149 194.596 846.149C194.132 846.149 193.753 846.071 193.458 845.915C193.166 845.76 192.938 845.577 192.772 845.369C192.606 845.16 192.478 844.974 192.389 844.812H192.3V848.864H190.813ZM192.27 842.182C192.27 842.719 192.348 843.189 192.503 843.594C192.659 843.998 192.884 844.315 193.179 844.543C193.474 844.769 193.836 844.881 194.263 844.881C194.707 844.881 195.079 844.764 195.377 844.528C195.675 844.29 195.901 843.967 196.053 843.559C196.209 843.151 196.287 842.692 196.287 842.182C196.287 841.678 196.21 841.226 196.058 840.825C195.909 840.424 195.683 840.107 195.382 839.875C195.084 839.643 194.711 839.527 194.263 839.527C193.832 839.527 193.468 839.638 193.17 839.86C192.875 840.082 192.651 840.392 192.498 840.79C192.346 841.187 192.27 841.652 192.27 842.182ZM202.516 846.154C201.8 846.154 201.176 845.99 200.642 845.662C200.108 845.334 199.694 844.875 199.399 844.285C199.104 843.695 198.957 843.005 198.957 842.217C198.957 841.424 199.104 840.732 199.399 840.138C199.694 839.545 200.108 839.085 200.642 838.756C201.176 838.428 201.8 838.264 202.516 838.264C203.232 838.264 203.857 838.428 204.391 838.756C204.924 839.085 205.338 839.545 205.633 840.138C205.928 840.732 206.076 841.424 206.076 842.217C206.076 843.005 205.928 843.695 205.633 844.285C205.338 844.875 204.924 845.334 204.391 845.662C203.857 845.99 203.232 846.154 202.516 846.154ZM202.521 844.906C202.985 844.906 203.37 844.784 203.675 844.538C203.98 844.293 204.205 843.967 204.351 843.559C204.5 843.151 204.574 842.702 204.574 842.212C204.574 841.724 204.5 841.277 204.351 840.869C204.205 840.458 203.98 840.129 203.675 839.88C203.37 839.631 202.985 839.507 202.521 839.507C202.054 839.507 201.666 839.631 201.358 839.88C201.053 840.129 200.826 840.458 200.677 840.869C200.531 841.277 200.458 841.724 200.458 842.212C200.458 842.702 200.531 843.151 200.677 843.559C200.826 843.967 201.053 844.293 201.358 844.538C201.666 844.784 202.054 844.906 202.521 844.906ZM207.581 846V838.364H209.018V839.577H209.098C209.237 839.166 209.482 838.843 209.833 838.607C210.188 838.369 210.589 838.249 211.036 838.249C211.129 838.249 211.239 838.253 211.365 838.259C211.494 838.266 211.595 838.274 211.668 838.284V839.706C211.608 839.689 211.502 839.671 211.35 839.651C211.197 839.628 211.045 839.616 210.892 839.616C210.541 839.616 210.228 839.691 209.953 839.84C209.681 839.986 209.465 840.19 209.306 840.452C209.147 840.71 209.068 841.005 209.068 841.337V846H207.581ZM216.351 846V838.364H217.838V846H216.351ZM217.102 837.185C216.843 837.185 216.621 837.099 216.436 836.927C216.254 836.751 216.162 836.542 216.162 836.3C216.162 836.055 216.254 835.846 216.436 835.674C216.621 835.498 216.843 835.411 217.102 835.411C217.361 835.411 217.581 835.498 217.763 835.674C217.949 835.846 218.042 836.055 218.042 836.3C218.042 836.542 217.949 836.751 217.763 836.927C217.581 837.099 217.361 837.185 217.102 837.185ZM221.17 841.466V846H219.684V838.364H221.11V839.607H221.205C221.381 839.202 221.656 838.877 222.03 838.632C222.408 838.387 222.884 838.264 223.457 838.264C223.977 838.264 224.433 838.374 224.824 838.592C225.215 838.808 225.519 839.129 225.734 839.557C225.949 839.984 226.057 840.513 226.057 841.143V846H224.571V841.322C224.571 840.768 224.427 840.336 224.138 840.024C223.85 839.709 223.454 839.552 222.95 839.552C222.605 839.552 222.299 839.626 222.03 839.776C221.765 839.925 221.555 840.143 221.399 840.432C221.246 840.717 221.17 841.062 221.17 841.466ZM231.113 846.154C230.374 846.154 229.738 845.987 229.204 845.652C228.674 845.314 228.266 844.848 227.981 844.255C227.696 843.662 227.554 842.982 227.554 842.217C227.554 841.441 227.7 840.757 227.991 840.163C228.283 839.567 228.694 839.101 229.224 838.766C229.755 838.432 230.379 838.264 231.099 838.264C231.679 838.264 232.196 838.372 232.65 838.587C233.104 838.799 233.47 839.098 233.748 839.482C234.03 839.867 234.197 840.316 234.251 840.83H232.804C232.724 840.472 232.542 840.163 232.257 839.905C231.975 839.646 231.597 839.517 231.123 839.517C230.709 839.517 230.346 839.626 230.035 839.845C229.726 840.061 229.486 840.369 229.314 840.77C229.141 841.168 229.055 841.638 229.055 842.182C229.055 842.739 229.14 843.219 229.309 843.624C229.478 844.028 229.716 844.341 230.025 844.563C230.336 844.785 230.702 844.896 231.123 844.896C231.405 844.896 231.66 844.845 231.889 844.742C232.121 844.636 232.315 844.485 232.471 844.29C232.63 844.094 232.741 843.859 232.804 843.584H234.251C234.197 844.078 234.037 844.518 233.768 844.906C233.5 845.294 233.14 845.599 232.689 845.821C232.242 846.043 231.717 846.154 231.113 846.154ZM235.686 846V838.364H237.173V846H235.686ZM236.437 837.185C236.178 837.185 235.956 837.099 235.771 836.927C235.588 836.751 235.497 836.542 235.497 836.3C235.497 836.055 235.588 835.846 235.771 835.674C235.956 835.498 236.178 835.411 236.437 835.411C236.695 835.411 236.916 835.498 237.098 835.674C237.284 835.846 237.377 836.055 237.377 836.3C237.377 836.542 237.284 836.751 237.098 836.927C236.916 837.099 236.695 837.185 236.437 837.185ZM241.877 846.149C241.261 846.149 240.71 845.992 240.227 845.677C239.746 845.359 239.368 844.906 239.093 844.32C238.821 843.73 238.685 843.022 238.685 842.197C238.685 841.371 238.823 840.665 239.098 840.079C239.376 839.492 239.758 839.043 240.242 838.732C240.725 838.42 241.274 838.264 241.887 838.264C242.361 838.264 242.742 838.344 243.031 838.503C243.322 838.659 243.548 838.841 243.707 839.05C243.869 839.259 243.995 839.442 244.085 839.602H244.174V835.818H245.661V846H244.209V844.812H244.085C243.995 844.974 243.866 845.16 243.697 845.369C243.531 845.577 243.302 845.76 243.011 845.915C242.719 846.071 242.341 846.149 241.877 846.149ZM242.205 844.881C242.633 844.881 242.994 844.769 243.289 844.543C243.587 844.315 243.813 843.998 243.965 843.594C244.121 843.189 244.199 842.719 244.199 842.182C244.199 841.652 244.123 841.187 243.97 840.79C243.818 840.392 243.594 840.082 243.299 839.86C243.004 839.638 242.639 839.527 242.205 839.527C241.758 839.527 241.385 839.643 241.087 839.875C240.788 840.107 240.563 840.424 240.411 840.825C240.261 841.226 240.187 841.678 240.187 842.182C240.187 842.692 240.263 843.151 240.416 843.559C240.568 843.967 240.793 844.29 241.092 844.528C241.393 844.764 241.764 844.881 242.205 844.881ZM247.628 846V838.364H249.115V846H247.628ZM248.379 837.185C248.12 837.185 247.898 837.099 247.713 836.927C247.53 836.751 247.439 836.542 247.439 836.3C247.439 836.055 247.53 835.846 247.713 835.674C247.898 835.498 248.12 835.411 248.379 835.411C248.637 835.411 248.858 835.498 249.04 835.674C249.226 835.846 249.319 836.055 249.319 836.3C249.319 836.542 249.226 836.751 249.04 836.927C248.858 837.099 248.637 837.185 248.379 837.185ZM253.819 846.149C253.203 846.149 252.653 845.992 252.169 845.677C251.688 845.359 251.31 844.906 251.035 844.32C250.763 843.73 250.627 843.022 250.627 842.197C250.627 841.371 250.765 840.665 251.04 840.079C251.318 839.492 251.7 839.043 252.184 838.732C252.667 838.42 253.216 838.264 253.829 838.264C254.303 838.264 254.684 838.344 254.973 838.503C255.264 838.659 255.49 838.841 255.649 839.05C255.811 839.259 255.937 839.442 256.027 839.602H256.116V835.818H257.603V846H256.151V844.812H256.027C255.937 844.974 255.808 845.16 255.639 845.369C255.473 845.577 255.244 845.76 254.953 845.915C254.661 846.071 254.283 846.149 253.819 846.149ZM254.147 844.881C254.575 844.881 254.936 844.769 255.231 844.543C255.529 844.315 255.755 843.998 255.907 843.594C256.063 843.189 256.141 842.719 256.141 842.182C256.141 841.652 256.065 841.187 255.912 840.79C255.76 840.392 255.536 840.082 255.241 839.86C254.946 839.638 254.581 839.527 254.147 839.527C253.7 839.527 253.327 839.643 253.029 839.875C252.73 840.107 252.505 840.424 252.353 840.825C252.203 841.226 252.129 841.678 252.129 842.182C252.129 842.692 252.205 843.151 252.358 843.559C252.51 843.967 252.735 844.29 253.034 844.528C253.335 844.764 253.706 844.881 254.147 844.881ZM264.408 842.833V838.364H265.899V846H264.437V844.678H264.358C264.182 845.085 263.9 845.425 263.513 845.697C263.128 845.965 262.649 846.099 262.076 846.099C261.585 846.099 261.151 845.992 260.773 845.776C260.399 845.558 260.104 845.234 259.888 844.807C259.676 844.379 259.57 843.851 259.57 843.221V838.364H261.057V843.042C261.057 843.562 261.201 843.977 261.489 844.285C261.778 844.593 262.152 844.747 262.613 844.747C262.891 844.747 263.168 844.678 263.443 844.538C263.721 844.399 263.952 844.189 264.134 843.907C264.32 843.625 264.411 843.267 264.408 842.833ZM269.229 841.466V846H267.742V838.364H269.169V839.607H269.264C269.439 839.202 269.714 838.877 270.089 838.632C270.467 838.387 270.942 838.264 271.516 838.264C272.036 838.264 272.492 838.374 272.883 838.592C273.274 838.808 273.577 839.129 273.793 839.557C274.008 839.984 274.116 840.513 274.116 841.143V846H272.629V841.322C272.629 840.768 272.485 840.336 272.197 840.024C271.909 839.709 271.512 839.552 271.009 839.552C270.664 839.552 270.357 839.626 270.089 839.776C269.824 839.925 269.613 840.143 269.458 840.432C269.305 840.717 269.229 841.062 269.229 841.466ZM279.52 838.364V839.557H275.349V838.364H279.52ZM276.468 836.534H277.954V843.758C277.954 844.046 277.997 844.263 278.083 844.409C278.17 844.552 278.281 844.649 278.416 844.702C278.556 844.752 278.706 844.777 278.869 844.777C278.988 844.777 279.093 844.769 279.182 844.752C279.272 844.736 279.341 844.722 279.391 844.712L279.659 845.94C279.573 845.973 279.451 846.007 279.291 846.04C279.132 846.076 278.934 846.096 278.695 846.099C278.304 846.106 277.939 846.036 277.601 845.891C277.263 845.745 276.99 845.519 276.781 845.214C276.572 844.91 276.468 844.527 276.468 844.066V836.534ZM289.399 842.833V838.364H290.89V846H289.429V844.678H289.349C289.174 845.085 288.892 845.425 288.504 845.697C288.12 845.965 287.641 846.099 287.067 846.099C286.577 846.099 286.143 845.992 285.765 845.776C285.39 845.558 285.095 845.234 284.88 844.807C284.668 844.379 284.562 843.851 284.562 843.221V838.364H286.048V843.042C286.048 843.562 286.192 843.977 286.481 844.285C286.769 844.593 287.144 844.747 287.604 844.747C287.883 844.747 288.159 844.678 288.434 844.538C288.713 844.399 288.943 844.189 289.126 843.907C289.311 843.625 289.402 843.267 289.399 842.833ZM296.298 838.364V839.557H292.127V838.364H296.298ZM293.246 836.534H294.732V843.758C294.732 844.046 294.775 844.263 294.862 844.409C294.948 844.552 295.059 844.649 295.195 844.702C295.334 844.752 295.485 844.777 295.647 844.777C295.766 844.777 295.871 844.769 295.96 844.752C296.05 844.736 296.119 844.722 296.169 844.712L296.438 845.94C296.351 845.973 296.229 846.007 296.07 846.04C295.911 846.076 295.712 846.096 295.473 846.099C295.082 846.106 294.717 846.036 294.379 845.891C294.041 845.745 293.768 845.519 293.559 845.214C293.35 844.91 293.246 844.527 293.246 844.066V836.534ZM302.826 835.818V846H301.34V835.818H302.826ZM306.894 846.169C306.411 846.169 305.973 846.08 305.582 845.901C305.191 845.718 304.881 845.455 304.652 845.11C304.427 844.765 304.314 844.343 304.314 843.842C304.314 843.411 304.397 843.057 304.563 842.778C304.728 842.5 304.952 842.28 305.234 842.117C305.516 841.955 305.831 841.832 306.179 841.749C306.527 841.666 306.881 841.603 307.242 841.56C307.7 841.507 308.071 841.464 308.356 841.431C308.641 841.395 308.848 841.337 308.978 841.257C309.107 841.178 309.171 841.048 309.171 840.869V840.835C309.171 840.4 309.049 840.064 308.804 839.825C308.562 839.587 308.2 839.467 307.72 839.467C307.219 839.467 306.825 839.578 306.536 839.8C306.251 840.019 306.054 840.263 305.945 840.531L304.548 840.213C304.714 839.749 304.956 839.375 305.274 839.089C305.595 838.801 305.965 838.592 306.382 838.463C306.8 838.33 307.239 838.264 307.7 838.264C308.005 838.264 308.328 838.301 308.669 838.374C309.014 838.443 309.335 838.572 309.634 838.761C309.935 838.95 310.182 839.22 310.375 839.572C310.567 839.92 310.663 840.372 310.663 840.929V846H309.211V844.956H309.152C309.055 845.148 308.911 845.337 308.719 845.523C308.527 845.708 308.28 845.862 307.978 845.985C307.677 846.108 307.315 846.169 306.894 846.169ZM307.218 844.976C307.629 844.976 307.98 844.895 308.272 844.732C308.567 844.57 308.79 844.358 308.943 844.096C309.099 843.831 309.176 843.547 309.176 843.246V842.261C309.123 842.314 309.021 842.364 308.868 842.411C308.719 842.454 308.548 842.492 308.356 842.525C308.164 842.555 307.977 842.583 307.794 842.609C307.612 842.633 307.46 842.652 307.337 842.669C307.049 842.705 306.785 842.767 306.546 842.853C306.311 842.939 306.122 843.063 305.98 843.226C305.84 843.385 305.771 843.597 305.771 843.862C305.771 844.23 305.907 844.509 306.179 844.697C306.45 844.883 306.797 844.976 307.218 844.976ZM312.608 846V835.818H314.095V839.602H314.184C314.27 839.442 314.395 839.259 314.557 839.05C314.719 838.841 314.945 838.659 315.233 838.503C315.522 838.344 315.903 838.264 316.377 838.264C316.993 838.264 317.543 838.42 318.027 838.732C318.511 839.043 318.891 839.492 319.166 840.079C319.444 840.665 319.583 841.371 319.583 842.197C319.583 843.022 319.446 843.73 319.171 844.32C318.896 844.906 318.518 845.359 318.037 845.677C317.557 845.992 317.008 846.149 316.392 846.149C315.928 846.149 315.548 846.071 315.253 845.915C314.961 845.76 314.733 845.577 314.567 845.369C314.401 845.16 314.274 844.974 314.184 844.812H314.06V846H312.608ZM314.065 842.182C314.065 842.719 314.143 843.189 314.299 843.594C314.454 843.998 314.68 844.315 314.975 844.543C315.27 844.769 315.631 844.881 316.058 844.881C316.503 844.881 316.874 844.764 317.172 844.528C317.47 844.29 317.696 843.967 317.848 843.559C318.004 843.151 318.082 842.692 318.082 842.182C318.082 841.678 318.006 841.226 317.853 840.825C317.704 840.424 317.479 840.107 317.177 839.875C316.879 839.643 316.506 839.527 316.058 839.527C315.628 839.527 315.263 839.638 314.965 839.86C314.67 840.082 314.446 840.392 314.294 840.79C314.141 841.187 314.065 841.652 314.065 842.182ZM324.315 846.154C323.599 846.154 322.974 845.99 322.441 845.662C321.907 845.334 321.493 844.875 321.198 844.285C320.903 843.695 320.755 843.005 320.755 842.217C320.755 841.424 320.903 840.732 321.198 840.138C321.493 839.545 321.907 839.085 322.441 838.756C322.974 838.428 323.599 838.264 324.315 838.264C325.031 838.264 325.656 838.428 326.189 838.756C326.723 839.085 327.137 839.545 327.432 840.138C327.727 840.732 327.875 841.424 327.875 842.217C327.875 843.005 327.727 843.695 327.432 844.285C327.137 844.875 326.723 845.334 326.189 845.662C325.656 845.99 325.031 846.154 324.315 846.154ZM324.32 844.906C324.784 844.906 325.169 844.784 325.474 844.538C325.778 844.293 326.004 843.967 326.15 843.559C326.299 843.151 326.373 842.702 326.373 842.212C326.373 841.724 326.299 841.277 326.15 840.869C326.004 840.458 325.778 840.129 325.474 839.88C325.169 839.631 324.784 839.507 324.32 839.507C323.853 839.507 323.465 839.631 323.157 839.88C322.852 840.129 322.625 840.458 322.476 840.869C322.33 841.277 322.257 841.724 322.257 842.212C322.257 842.702 322.33 843.151 322.476 843.559C322.625 843.967 322.852 844.293 323.157 844.538C323.465 844.784 323.853 844.906 324.32 844.906ZM329.38 846V838.364H330.817V839.577H330.896C331.036 839.166 331.281 838.843 331.632 838.607C331.987 838.369 332.388 838.249 332.835 838.249C332.928 838.249 333.038 838.253 333.163 838.259C333.293 838.266 333.394 838.274 333.467 838.284V839.706C333.407 839.689 333.301 839.671 333.149 839.651C332.996 839.628 332.844 839.616 332.691 839.616C332.34 839.616 332.027 839.691 331.752 839.84C331.48 839.986 331.264 840.19 331.105 840.452C330.946 840.71 330.867 841.005 330.867 841.337V846H329.38ZM337.617 846.154C336.865 846.154 336.217 845.993 335.673 845.672C335.133 845.347 334.715 844.891 334.42 844.305C334.128 843.715 333.983 843.024 333.983 842.232C333.983 841.449 334.128 840.76 334.42 840.163C334.715 839.567 335.126 839.101 335.653 838.766C336.183 838.432 336.803 838.264 337.512 838.264C337.943 838.264 338.361 838.335 338.765 838.478C339.17 838.621 339.533 838.844 339.854 839.149C340.176 839.454 340.429 839.85 340.615 840.337C340.8 840.821 340.893 841.41 340.893 842.102V842.629H334.823V841.516H339.437C339.437 841.125 339.357 840.778 339.198 840.477C339.039 840.172 338.815 839.931 338.527 839.756C338.242 839.58 337.907 839.492 337.522 839.492C337.105 839.492 336.74 839.595 336.429 839.8C336.12 840.003 335.882 840.268 335.713 840.596C335.547 840.921 335.464 841.274 335.464 841.655V842.525C335.464 843.035 335.554 843.469 335.733 843.827C335.915 844.185 336.169 844.459 336.493 844.648C336.818 844.833 337.198 844.926 337.632 844.926C337.914 844.926 338.17 844.886 338.402 844.807C338.634 844.724 338.835 844.601 339.004 844.439C339.173 844.277 339.302 844.076 339.392 843.837L340.799 844.091C340.686 844.505 340.484 844.868 340.192 845.18C339.904 845.488 339.541 845.728 339.103 845.901C338.669 846.07 338.174 846.154 337.617 846.154Z" fill="#5E5252"/>
</g>
<defs>
<clipPath id="clip0_37_443">
<rect width="402" height="874" fill="white"/>
</clipPath>
</defs>
</svg>
